PathFileType	4	(X/Y/Z)	E:\3-PhD\Data\MocapData\ElaboratedData\009\pre\dynamicElaborations\RunN1\RunN1.trc
DataRate	CameraRate	NumFrames	NumMarkers	Units	OrigDataRate	DataStartFrame
200	200	4	54	mm	200	557
Frame#	Time	FHD			LBHD			RBHD			C7			T10			CLAV			LSHO			LUUPA			LMUPA			LDUPA			LLEP			LMEP			LRAD			LUL			LRFIN			RSHO			RUPA1			RMUPA			RDUPA			RLEP			RMEP			RRAD			RUL			RUFIN			RASI			USACR			LSACR			RSACR			LTHI1			LTHI2			LTHI3			LTHI4			LTIB1			LTIB2			LTIB3			LTIB4			LLMAL			LHEE			LMT1			LMT2			RTHI			RTHI2			RTHI3			RTHI4			RLFC			RTIB1			RTIB2			RTIB3			RTIB4			RLMAL			RHEE			RMT1			RMT2			RMT5		
		X1	Y1	Z1	X2	Y2	Z2	X3	Y3	Z3	X4	Y4	Z4	X5	Y5	Z5	X6	Y6	Z6	X7	Y7	Z7	X8	Y8	Z8	X9	Y9	Z9	X10	Y10	Z10	X11	Y11	Z11	X12	Y12	Z12	X13	Y13	Z13	X14	Y14	Z14	X15	Y15	Z15	X16	Y16	Z16	X17	Y17	Z17	X18	Y18	Z18	X19	Y19	Z19	X20	Y20	Z20	X21	Y21	Z21	X22	Y22	Z22	X23	Y23	Z23	X24	Y24	Z24	X25	Y25	Z25	X26	Y26	Z26	X27	Y27	Z27	X28	Y28	Z28	X29	Y29	Z29	X30	Y30	Z30	X31	Y31	Z31	X32	Y32	Z32	X33	Y33	Z33	X34	Y34	Z34	X35	Y35	Z35	X36	Y36	Z36	X37	Y37	Z37	X38	Y38	Z38	X39	Y39	Z39	X40	Y40	Z40	X41	Y41	Z41	X42	Y42	Z42	X43	Y43	Z43	X44	Y44	Z44	X45	Y45	Z45	X46	Y46	Z46	X47	Y47	Z47	X48	Y48	Z48	X49	Y49	Z49	X50	Y50	Z50	X51	Y51	Z51	X52	Y52	Z52	X53	Y53	Z53	X54	Y54	Z54	

571	2.850000	-2619.869801	1508.268969	396.514910	-2787.775047	1576.558356	310.171281	-2752.579044	1554.355386	433.915877	-2883.377799	1457.071361	364.824109	-3094.149749	1175.909786	406.983977	-2799.542667	1318.340010	337.419367	-2826.517966	1382.552896	198.727161	-2997.997568	1354.931572	104.228204	-3006.515310	1307.252364	97.218610	-3060.840673	1332.666393	88.721100	-3173.758867	1298.552975	69.634955	-3192.496434	1292.203220	140.212904	-3184.087978	1036.425172	68.427540	-3255.284316	1038.457566	43.996187	-3172.130216	979.425840	20.612454	-2792.278376	1419.291717	491.984543	-2818.360818	1283.463798	607.647480	-2787.424991	1250.828248	604.519170	-2824.936660	1225.285022	646.558531	-2821.783303	1090.087878	674.339354	-2866.812098	1063.287601	619.261736	-2639.146098	1146.926514	498.293316	-2610.422858	1098.259152	531.822635	-2574.433290	1189.507852	517.023224	-3007.286358	939.496869	499.996613	-3141.550090	1098.145207	403.937539	-3160.769802	1069.541469	377.794872	-3152.861748	1069.442000	435.464528	-2974.336625	796.829121	179.468853	-2896.629363	761.742200	179.668334	-2864.292016	791.776142	199.691756	-2882.714576	700.870059	182.153039	-2737.829887	465.337536	246.323911	-2795.678629	413.440541	205.612354	-2756.860298	415.355333	224.310878	-2748.877250	339.354977	265.859012	-2798.210708	179.821267	275.659050	-2868.563454	132.861891	331.202289	-2646.956308	157.306221	344.295777	-2645.699560	147.505326	298.937081	-3162.762057	716.940839	555.026191	-3160.733693	652.428107	537.142623	-3134.936344	637.455005	524.398059	-3229.975970	602.861503	529.631958	-3283.048539	511.342104	502.941638	-3479.647865	415.341727	462.886543	-3569.809735	467.107659	498.673767	-3561.720878	424.184629	485.793597	-3606.184447	403.468822	450.165542	-3713.203471	443.385813	478.615504	-3735.526609	514.984007	424.812115	-3782.511835	295.563847	388.026470	-3788.748425	292.199631	431.210022	-3818.864558	338.523661	480.876967	
572	2.855000	-2591.902052	1507.875112	395.038388	-2759.663677	1576.304016	308.487176	-2724.516204	1554.103062	431.783067	-2854.575144	1457.780666	363.489256	-3066.982531	1177.580103	406.610426	-2772.143737	1317.685395	336.506094	-2799.592707	1382.303973	197.296329	-2971.477855	1348.978686	102.817293	-2978.202781	1300.999380	96.274393	-3033.412120	1324.209256	87.145411	-3144.883638	1285.855092	68.670727	-3163.736351	1279.527921	139.343571	-3142.488494	1023.703407	71.778196	-3213.456990	1021.866850	46.663561	-3127.187702	966.587619	25.473893	-2763.474287	1417.230818	491.959771	-2796.238388	1282.254454	607.697118	-2767.208387	1247.789541	604.608170	-2806.181346	1224.590232	646.741083	-2809.255960	1089.591797	675.461979	-2854.829749	1064.516413	620.222215	-2617.444909	1125.552708	504.252636	-2594.158316	1075.067033	538.762218	-2548.996281	1161.836006	523.475271	-2977.781569	941.013358	498.833759	-3114.745054	1098.331956	404.611141	-3134.010949	1069.513655	378.766445	-3125.226516	1069.610497	436.364377	-2951.086762	791.440364	178.358964	-2874.405331	754.010582	178.158009	-2840.924325	783.370709	197.175459	-2862.300619	692.759837	181.254596	-2717.930160	457.462623	244.482537	-2776.461236	405.070244	205.431252	-2737.085577	407.287507	223.055323	-2727.573323	331.417075	264.580084	-2775.649692	171.515962	275.539993	-2844.747175	124.936746	332.788958	-2623.127205	149.412521	341.677617	-2622.784021	139.222648	296.417648	-3129.849180	714.983058	555.198207	-3126.157684	650.561327	538.337901	-3099.906433	636.114392	525.906111	-3193.939910	599.032825	530.818771	-3244.526690	506.719899	504.397989	-3443.223667	419.157638	462.153337	-3531.287013	475.107960	496.809600	-3525.079656	432.092327	484.000481	-3570.168321	413.529198	447.931240	-3675.522401	458.638786	476.132513	-3694.213802	531.136854	421.829498	-3749.780280	314.147093	384.298602	-3756.368096	311.055338	427.261669	-3784.975528	358.372835	477.133315	
573	2.860000	-2564.097604	1507.218867	393.647970	-2731.683469	1575.854225	306.880041	-2696.623812	1553.573432	429.715889	-2826.082055	1458.169244	362.151987	-3039.683313	1178.752122	406.279368	-2744.808872	1316.722774	335.665206	-2772.716171	1381.909166	195.895599	-2944.665758	1342.521161	101.369302	-2949.512559	1294.304094	95.343472	-3005.546262	1315.168482	85.533943	-3115.342614	1272.377896	67.655631	-3134.327935	1266.104618	138.414076	-3099.886745	1010.933507	75.284933	-3170.419612	1005.109753	49.545345	-3081.129441	953.939874	30.482933	-2735.061820	1414.991429	491.879178	-2774.237902	1281.061121	607.653331	-2747.239628	1244.830121	604.335290	-2787.442802	1223.979888	646.667052	-2796.631036	1089.536725	676.457478	-2842.555839	1066.171116	621.039298	-2597.275167	1103.396517	511.080138	-2579.800628	1051.491466	546.486347	-2525.597286	1132.774279	531.125048	-2948.288434	942.093558	497.716925	-3087.734136	1098.089991	405.523230	-3107.091915	1069.105473	379.974449	-3097.391486	1069.333013	437.484884	-2928.047704	785.940103	177.400557	-2852.426669	746.245750	176.787062	-2817.850218	774.952284	194.642017	-2842.038610	684.701226	180.590701	-2699.055765	449.370528	242.527734	-2758.687826	396.879668	205.266034	-2718.714021	399.161771	221.747923	-2708.071827	323.365356	263.154296	-2755.840773	163.417502	275.388770	-2823.940449	117.611033	334.326018	-2602.227414	140.851162	338.999684	-2602.863189	130.326800	293.839649	-3096.876670	712.851339	555.359920	-3091.474037	648.554866	539.660076	-3064.758703	634.633074	527.532465	-3157.726679	595.110796	531.960269	-3205.574996	502.024504	505.912609	-3405.647751	422.558570	461.457841	-3491.489741	482.347619	495.034932	-3487.088100	439.255658	482.035936	-3532.657584	422.941592	445.717374	-3636.036526	473.023581	473.907389	-3651.166107	546.265242	419.095664	-3715.305845	331.920967	380.722767	-3722.207021	329.105883	423.427678	-3749.215085	377.332026	473.542224	
574	2.865000	-2536.468918	1506.326651	392.346615	-2703.848903	1575.230922	305.355370	-2668.923216	1552.788567	427.760041	-2797.935633	1458.203463	360.779817	-3012.262558	1179.401897	406.013654	-2717.528275	1315.488512	334.861425	-2745.892913	1381.353188	194.515039	-2917.519815	1335.564270	99.902406	-2920.410982	1287.186884	94.441296	-2977.191522	1305.575102	83.920265	-3085.068092	1258.169039	66.613596	-3104.211780	1251.975223	137.440968	-3056.287787	998.227052	78.941710	-3126.163105	988.322852	52.652849	-3033.996776	941.618826	35.605863	-2707.061870	1412.621930	491.728101	-2752.301451	1279.897298	607.498906	-2727.409046	1242.007752	603.708480	-2768.617547	1223.455472	646.375511	-2783.785390	1089.907163	677.319560	-2829.885514	1068.215064	621.723934	-2578.821418	1080.766603	518.676253	-2567.464236	1027.930566	554.948796	-2504.572209	1102.790204	539.915856	-2918.832806	942.707746	496.665713	-3060.499647	1097.448622	406.662574	-3079.991854	1068.357926	381.388956	-3069.355471	1068.626012	438.794121	-2905.187038	780.428355	176.621012	-2830.652172	738.571997	175.563859	-2795.043778	766.645681	192.132986	-2821.870641	676.823057	180.155664	-2681.131413	441.033443	240.588117	-2742.141234	388.818355	205.086728	-2701.599054	390.935322	220.472576	-2690.292890	315.159451	261.708229	-2738.683173	155.484533	275.222753	-2806.104703	110.789712	335.698208	-2584.232099	131.701875	336.479170	-2585.836901	120.926603	291.404287	-3063.765061	710.506817	555.480325	-3056.608239	646.381484	541.039373	-3029.423532	632.995585	529.196763	-3121.257395	591.071392	533.042725	-3166.151385	497.271117	507.455528	-3366.980655	425.536143	460.838390	-3450.514946	488.839252	493.409548	-3447.839917	445.673755	479.989974	-3493.748115	431.669014	443.606362	-3594.935958	486.450494	471.934309	-3606.640935	560.282414	416.623192	-3679.088193	348.714485	377.388555	-3686.288309	346.177007	419.828955	-3711.646131	395.206405	470.171598	
